<svg id="Capa_1" enable-background="new 0 0 512 512" height="512" viewBox="0 0 512 512" width="512" xmlns="http://www.w3.org/2000/svg"><g><path d="m209.361 7.5c-25.969 0-47.022 21.075-47.022 47.072 0 1.354.07 2.69.182 4.015-4.651-1.015-9.476-1.565-14.43-1.565-37.255 0-67.456 30.234-67.456 67.529 0 8.353 1.525 16.347 4.295 23.732-34.424 3.059-61.419 31.989-61.419 67.246 0 22.376 10.879 42.201 27.624 54.489-16.755 5.544-29.684 20.337-31.951 39.035-3.014 24.856 13.911 47.526 38.195 51.964-7.545 11.221-11.95 24.732-11.95 39.275 0 38.895 31.496 70.424 70.348 70.424 12.638 0 24.487-3.353 34.738-9.194 4.889 24.507 26.494 42.976 52.413 42.976 29.522 0 53.455-23.958 53.455-53.513v-396.413c-.001-25.997-21.053-47.072-47.022-47.072z" fill="#e6989e"/><path d="m120.514 461.524c-6.073 3.46-12.71 6.039-19.737 7.573 4.835 1.052 9.85 1.621 15 1.621 2.467 0 4.903-.132 7.305-.381-1.097-2.83-1.962-5.775-2.568-8.813z" fill="#e27f86"/><path d="m209.361 7.5c-5.247 0-10.288.873-15 2.461 18.611 6.269 32.021 23.867 32.021 44.612v396.415c0 24.34-16.239 44.871-38.459 51.362 4.761 1.392 9.793 2.15 15.004 2.15 29.522 0 53.455-23.958 53.455-53.512v-396.416c0-25.997-21.052-47.072-47.021-47.072z" fill="#e27f86"/><g fill="#e6989e"><path d="m485.568 340.372c5.81-8.942 8.632-19.9 7.248-31.318-3.129-25.808-26.564-44.19-52.344-41.058-3.155.383-6.2 1.071-9.107 2.031"/><path d="m396.224 183.842c20.939-11.462 35.141-33.716 35.141-59.291 0-37.295-30.201-67.529-67.456-67.529-13.97 0-26.949 4.252-37.715 11.533"/><path d="m337.889 439.668c12.642 18.733 34.051 31.049 58.334 31.049 38.852 0 70.348-31.53 70.348-70.424 0-21.801-9.895-41.288-25.434-54.206"/><path d="m302.639 7.5c25.969 0 47.022 21.075 47.022 47.072 0 1.354-.07 2.69-.182 4.015 4.651-1.015 9.475-1.565 14.431-1.565 37.255 0 67.456 30.234 67.456 67.529 0 8.353-1.525 16.347-4.295 23.732 34.424 3.059 61.419 31.989 61.419 67.246 0 22.376-10.879 42.201-27.624 54.489 16.755 5.544 29.684 20.337 31.951 39.035 3.014 24.856-13.911 47.526-38.195 51.964 7.545 11.221 11.95 24.732 11.95 39.275 0 38.895-31.496 70.424-70.348 70.424-12.638 0-24.487-3.353-34.738-9.194-4.889 24.507-26.494 42.976-52.413 42.976-29.522 0-53.455-23.958-53.455-53.513v-396.413c-.001-25.997 21.052-47.072 47.021-47.072z"/></g><path d="m326.061 478.51c-6.162 11.347-16.304 20.214-28.551 24.72 3.725.823 7.59 1.269 11.562 1.269 21.975 0 40.844-13.279 49.059-32.255-3.903-.45-7.708-1.219-11.39-2.28-8.03-2.315-16.692 1.202-20.68 8.546z" fill="#e27f86"/><path d="m492.816 309.054c-2.267-18.699-15.197-33.491-31.951-39.035 16.744-12.288 27.624-32.113 27.624-54.489 0-35.257-26.994-64.187-61.419-67.246 2.77-7.385 4.295-15.378 4.295-23.732 0-37.295-30.201-67.529-67.456-67.529-4.955 0-9.78.55-14.431 1.565.112-1.325.182-2.661.182-4.015 0-25.997-21.052-47.072-47.022-47.072-6.362 0-12.426 1.272-17.96 3.564 20.135 5.325 34.982 23.678 34.982 45.509v.041c-.002 2.022 1.774 3.547 3.772 3.232 3.414-.538 6.912-.823 10.477-.823 37.255 0 67.456 30.234 67.456 67.529 0 2.269-.113 4.512-.332 6.723-.896 9.024 4.273 17.631 12.807 20.699 26.03 9.358 44.649 34.275 44.649 63.555 0 22.377-10.879 42.202-27.624 54.489 16.755 5.544 29.684 20.337 31.951 39.035 2.042 16.843-5.071 32.683-17.426 42.525-9.563 7.619-13.771 19.964-10.853 31.838 1.329 5.407 2.034 11.059 2.034 16.876 0 32.094-21.453 59.154-50.78 67.642 3.404.509 6.885.782 10.432.782 38.852 0 70.348-31.53 70.348-70.424 0-14.543-4.406-28.055-11.95-39.275 24.283-4.438 41.208-27.108 38.195-51.964z" fill="#e27f86"/><path d="" style="fill:none;stroke:#000;stroke-width:15;stroke-linecap:round;stroke-linejoin:round;stroke-miterlimit:10"/><g><path d="m392.288 338.234c4.034-.941 6.541-4.975 5.6-9.008-.941-4.034-4.976-6.539-9.008-5.599-12.145 2.834-22.978 9.777-30.627 19.58-10.632-4.577-22.404-5.645-33.889-2.965-4.034.941-6.541 4.975-5.6 9.008.941 4.034 4.977 6.541 9.008 5.599 10.295-2.403 20.906-.657 29.879 4.916 8.972 5.571 15.231 14.3 17.628 24.58.597 2.563.94 5.181 1.021 7.781.125 4.061 3.457 7.268 7.492 7.268.078 0 .157-.001.236-.003 4.14-.128 7.393-3.588 7.264-7.728-.11-3.589-.584-7.196-1.406-10.722-2.776-11.914-9.326-22.307-18.682-29.887 5.459-6.38 12.855-10.9 21.084-12.82z"/><path d="m164.313 348.147c.266-8.511 2.356-17.058 6.371-25.067 5.383-10.741 13.743-19.514 24.176-25.37 3.612-2.027 4.896-6.599 2.869-10.211s-6.598-4.896-10.211-2.869c-13.055 7.328-23.513 18.299-30.244 31.728-4.285 8.55-6.806 17.589-7.663 26.672-16.962 7.108-30.971 20.357-38.882 37.008-1.777 3.741-.186 8.215 3.556 9.993 1.039.494 2.135.728 3.214.728 2.805 0 5.495-1.581 6.779-4.283 5.449-11.469 14.52-20.918 25.599-26.958 2.101 16.368 9.631 31.986 22.136 44.156 1.458 1.418 3.345 2.125 5.229 2.125 1.954 0 3.906-.759 5.376-2.269 2.889-2.969 2.824-7.717-.145-10.606-12.272-11.943-18.55-28.038-18.171-44.299.007-.16.014-.318.011-.478z"/><path d="m301.75 133.866c-3.986-1.122-8.129 1.2-9.252 5.187-1.122 3.987 1.2 8.129 5.188 9.251 16.486 4.641 29.684 15.792 37.109 30.266.068.14.136.28.214.417 3.828 7.608 6.07 16.116 6.363 25.072.394 12.007-2.768 23.706-9.142 33.831-2.207 3.505-1.154 8.136 2.351 10.343 1.241.782 2.623 1.154 3.989 1.154 2.491 0 4.928-1.241 6.353-3.505 7.977-12.67 11.933-27.302 11.44-42.314-.313-9.559-2.411-18.706-5.992-27.096 11.515-14.339 17.505-32.668 16.513-51.075-.223-4.136-3.782-7.303-7.893-7.086-4.137.223-7.309 3.757-7.086 7.893.683 12.679-2.781 25.312-9.635 35.906-9.654-13.384-23.723-23.516-40.52-28.244z"/><path d="m500.261 308.151c-2.027-16.719-11.751-31.438-25.797-40.034 13.641-13.929 21.523-32.855 21.523-52.587 0-18.867-7.024-36.898-19.778-50.773-10.592-11.521-24.352-19.353-39.433-22.58 1.388-5.749 2.088-11.647 2.088-17.624 0-41.371-33.625-75.029-74.956-75.029-1.055 0-2.112.03-3.168.075-.231.01-.463.022-.694.034-1.013.052-2.024.121-3.032.213-.018.002-.037.002-.055.004-2.4-27.891-25.845-49.85-54.32-49.85-19.745 0-37.071 10.561-46.639 26.334-9.568-15.773-26.894-26.334-46.639-26.334-28.475 0-51.92 21.96-54.319 49.849-14.811-1.387-29.765 1.708-42.688 8.735-3.639 1.979-4.984 6.533-3.006 10.172 1.979 3.638 6.529 4.984 10.172 3.006 12.442-6.767 27.288-8.926 41.402-5.847.062.014.125.018.187.029 7.342 1.627 14.238 4.592 20.495 8.824 1.288.871 2.749 1.289 4.195 1.289 2.406 0 4.77-1.156 6.22-3.299 2.32-3.431 1.42-8.094-2.012-10.414-6.236-4.218-12.988-7.417-20.122-9.581.949-20.984 18.29-37.763 39.476-37.763 19.79 0 36.227 14.641 39.081 33.674-.209 1.939-.324 115.068-.324 115.068-22.503 9.76-48.625 4.926-66.184-12.634-8.496-8.496-14.186-19.195-16.453-30.942-.784-4.066-4.711-6.729-8.786-5.942-4.067.785-6.728 4.719-5.942 8.786 2.838 14.699 9.953 28.084 20.574 38.705 14.452 14.452 33.544 22.014 52.929 22.014 8.006 0 16.063-1.293 23.863-3.92 0 0 .111 275.405.324 277.475-3.078 22.401-22.309 39.716-45.516 39.716-20.125 0-37.788-13.201-43.778-32.026 8.232-5.521 15.457-12.633 21.178-21.111 2.317-3.433 1.412-8.095-2.021-10.412-3.433-2.318-8.095-1.412-10.412 2.021-4.992 7.396-11.393 13.518-18.708 18.116.104.167.197.344.295.516-.93.129-1.841.426-2.68.903-9.427 5.371-20.154 8.21-31.024 8.21-34.655 0-62.849-28.228-62.849-62.924 0-11.13 2.9-21.917 8.41-31.453.002.005.005.009.007.013 3.682-6.383 8.486-12.156 14.312-16.998 3.185-2.648 3.62-7.377.973-10.562-2.648-3.185-7.375-3.622-10.563-.973-4.418 3.673-8.36 7.78-11.807 12.222-18.051-5.526-29.96-23.383-27.632-42.585 1.836-15.143 12.38-28.025 26.862-32.817.013-.004.026-.012.039-.016 5.436-1.794 11.242-2.394 17.093-1.682 2.613.318 5.19.892 7.661 1.708 3.934 1.3 8.175-.838 9.473-4.772s-.838-8.175-4.771-9.473c-3.408-1.125-6.958-1.917-10.553-2.354-6.695-.813-13.351-.384-19.708 1.194-13.658-11.358-21.713-28.374-21.713-46.215 0-15.097 5.619-29.523 15.821-40.622 8.912-9.694 20.624-16.119 33.412-18.431 6.749 14.336 17.983 26.31 31.931 33.944 1.143.626 2.377.922 3.594.922 2.652 0 5.223-1.41 6.586-3.9 1.988-3.634.655-8.191-2.979-10.18-11.946-6.539-21.408-17.053-26.641-29.604-.138-.33-4.602-15.86-4.602-23.107 0-12.032 3.54-23.637 10.237-33.561 2.317-3.433 1.412-8.095-2.021-10.412-3.434-2.317-8.095-1.412-10.412 2.021-8.376 12.412-12.804 26.919-12.804 41.952 0 5.977.7 11.876 2.088 17.624-15.081 3.227-28.841 11.059-39.433 22.58-12.754 13.875-19.778 31.906-19.778 50.773 0 19.733 7.883 38.659 21.524 52.587-14.047 8.596-23.771 23.315-25.797 40.034-3.045 25.11 11.567 48.565 34.326 57.425-5.346 10.73-8.137 22.561-8.137 34.717 0 42.968 34.923 77.924 77.849 77.924 10.313 0 20.524-2.063 29.988-6.018 8.726 23.539 31.434 39.802 57.164 39.802 22.739 0 42.597-12.537 53.073-31.06 10.475 18.523 30.333 31.06 53.072 31.06 25.732 0 48.44-16.262 57.162-39.801 9.464 3.955 19.676 6.018 29.989 6.018 10.523 0 20.733-2.068 30.349-6.145 3.814-1.618 5.593-6.02 3.976-9.833s-6.018-5.594-9.833-3.976c-7.752 3.288-15.991 4.955-24.491 4.955-10.871 0-21.599-2.839-31.025-8.21-.052-.03-.108-.051-.161-.079-8.337-4.77-15.49-11.393-20.931-19.456-2.317-3.434-6.98-4.339-10.412-2.021-3.434 2.317-4.339 6.978-2.021 10.412 5.677 8.414 12.868 15.555 21.171 21.131-5.997 18.813-23.655 32.005-43.773 32.005-23.205 0-42.437-17.315-45.513-39.718.213-2.07.209-406.67 0-408.609 2.853-19.032 19.29-33.673 39.08-33.673 21.186 0 38.528 16.78 39.476 37.764-7.131 2.173-13.948 5.402-20.123 9.579-3.431 2.321-4.331 6.983-2.01 10.414 1.449 2.143 3.813 3.299 6.219 3.299 1.445 0 2.907-.417 4.195-1.289 6.359-4.302 13.572-7.334 21.071-8.927 4.97-1.246 11.454-1.319 12.441-1.319 33.06 0 59.956 26.929 59.956 60.029 0 7.246-1.284 14.344-3.817 21.098-.017.044-.026.091-.042.135-5.065 13.406-14.783 24.582-27.383 31.479-3.633 1.989-4.966 6.547-2.978 10.18 1.363 2.491 3.934 3.9 6.586 3.9 1.217 0 2.451-.297 3.595-.922 14.019-7.674 25.174-19.595 31.921-33.946 12.792 2.311 24.505 8.736 33.419 18.432 10.202 11.099 15.821 25.525 15.821 40.622 0 17.844-8.059 34.864-21.721 46.222-6.386-1.587-13.037-2.009-19.701-1.201-3.595.438-7.145 1.229-10.553 2.354-3.934 1.298-6.069 5.539-4.771 9.473s5.537 6.069 9.473 4.772c2.47-.815 5.048-1.39 7.661-1.708 5.82-.707 11.626-.122 17.095 1.682.013.004.025.011.038.016 14.481 4.792 25.025 17.674 26.862 32.818 2.328 19.201-9.58 37.056-27.629 42.583-3.469-4.474-7.415-8.565-11.81-12.22-3.185-2.648-7.914-2.213-10.561.972-2.648 3.185-2.214 7.914.972 10.562 4.851 4.033 9.021 8.725 12.454 13.966.235.359.47.717.697 1.08.262.419.516.844.768 1.27 5.767 9.699 8.809 20.729 8.809 32.124 0 15.251-5.518 29.962-15.536 41.422-2.727 3.119-2.408 7.857.71 10.583s7.856 2.408 10.583-.71c12.409-14.194 19.243-32.411 19.243-51.294 0-12.157-2.79-23.987-8.136-34.717 22.76-8.861 37.373-32.316 34.328-57.426z"/></g></g></svg>