<?xml version="1.0" encoding="iso-8859-1"?>
<!-- Generator: Adobe Illustrator 21.0.0, SVG Export Plug-In . SVG Version: 6.00 Build 0)  -->
<svg xmlns="http://www.w3.org/2000/svg" xmlns:xlink="http://www.w3.org/1999/xlink" version="1.1" id="Capa_1" x="0px" y="0px" viewBox="0 0 512 512" style="enable-background:new 0 0 512 512;" xml:space="preserve" width="512" height="512">
<g>
	<rect x="177" y="31.5" style="fill:#2D3B42;" width="158" height="124"/>
	<path style="fill:#546E7A;" d="M423,177.505V487.25c0,9.527-7.723,17.25-17.25,17.25h-299.5c-9.527,0-17.25-7.723-17.25-17.25   V177.505c0-15.609,4.897-30.825,14-43.505l0,0c9.103-12.68,14-27.896,14-43.505V7.5h60v67.883   c0,21.604,17.513,39.117,39.117,39.117h79.766C317.487,114.5,335,96.987,335,75.383V7.5h60v82.995c0,15.609,4.897,30.825,14,43.505   v0C418.103,146.68,423,161.896,423,177.505z"/>
	<g>
		<path style="fill:#455A64;" d="M186.117,114.5h30C194.513,114.5,177,96.987,177,75.383V7.5h-30v67.883    C147,96.987,164.513,114.5,186.117,114.5z"/>
		<path style="fill:#455A64;" d="M409,134L409,134c-9.103-12.68-14-27.896-14-43.505V7.5h-30v82.995    c0,15.609,4.897,30.825,14,43.505l0,0c9.103,12.68,14,27.896,14,43.505V487.25c0,9.527-7.723,17.25-17.25,17.25h30    c9.527,0,17.25-7.723,17.25-17.25V177.505C423,161.896,418.103,146.68,409,134z"/>
	</g>
	<path style="fill:#37474F;" d="M361.5,170.5h-210c-8.284,0-15-6.716-15-15v0c0-8.284,6.716-15,15-15h210c8.284,0,15,6.716,15,15v0   C376.5,163.784,369.784,170.5,361.5,170.5z"/>
	<path style="fill:#37474F;" d="M361.5,228.5h-210c-8.284,0-15-6.716-15-15v0c0-8.284,6.716-15,15-15h210c8.284,0,15,6.716,15,15v0   C376.5,221.784,369.784,228.5,361.5,228.5z"/>
	<path style="fill:#37474F;" d="M361.5,286.5h-210c-8.284,0-15-6.716-15-15l0,0c0-8.284,6.716-15,15-15h210c8.284,0,15,6.716,15,15   l0,0C376.5,279.784,369.784,286.5,361.5,286.5z"/>
	<g>
		<path style="fill:#455A64;" d="M186.5,468.5h-112c-5.523,0-10-4.477-10-10v-141c0-5.523,4.477-10,10-10h44.384    c42.866,0,77.616,34.75,77.616,77.616V458.5C196.5,464.023,192.023,468.5,186.5,468.5z"/>
		<path style="fill:#37474F;" d="M118.884,307.5h-30c42.866,0,77.616,34.75,77.616,77.616V458.5c0,5.523-4.477,10-10,10h30    c5.523,0,10-4.477,10-10v-73.384C196.5,342.25,161.75,307.5,118.884,307.5z"/>
		<path style="fill:#455A64;" d="M325.5,468.5h112c5.523,0,10-4.477,10-10v-141c0-5.523-4.477-10-10-10h-44.384    c-42.866,0-77.616,34.75-77.616,77.616V458.5C315.5,464.023,319.977,468.5,325.5,468.5z"/>
		<path style="fill:#37474F;" d="M437.5,307.5h-30c5.523,0,10,4.477,10,10v141c0,5.523-4.477,10-10,10h30c5.523,0,10-4.477,10-10    v-141C447.5,311.977,443.023,307.5,437.5,307.5z"/>
	</g>
	<g>
		<path d="M117,39c4.142,0,7.5-3.358,7.5-7.5V15h45v60.38c0,25.707,20.914,46.62,46.62,46.62h79.76    c25.707,0,46.62-20.914,46.62-46.62V15h45v75.49c0,35.275,18.083,45.673,24.773,66.474c2.141,6.633,3.227,13.545,3.227,20.545    v78.99c0,4.142,3.358,7.5,7.5,7.5s7.5-3.358,7.5-7.5v-78.99c0-8.567-1.33-17.03-3.95-25.146    c-7.904-24.578-24.05-30.902-24.05-61.874V7.5c0-4.142-3.358-7.5-7.5-7.5h-60c-4.142,0-7.5,3.358-7.5,7.5V24h-143V7.5    c0-4.142-3.358-7.5-7.5-7.5h-60c-4.142,0-7.5,3.358-7.5,7.5v24C109.5,35.642,112.858,39,117,39z M327.5,39v36.38    c0,17.436-14.185,31.62-31.62,31.62h-79.76c-17.436,0-31.62-14.185-31.62-31.62V39H327.5z"/>
		<path d="M361.5,133h-210c-12.407,0-22.5,10.093-22.5,22.5s10.093,22.5,22.5,22.5h210c12.407,0,22.5-10.093,22.5-22.5    S373.907,133,361.5,133z M361.5,163h-210c-4.136,0-7.5-3.364-7.5-7.5s3.364-7.5,7.5-7.5h210c4.136,0,7.5,3.364,7.5,7.5    S365.636,163,361.5,163z"/>
		<path d="M361.5,191h-210c-12.407,0-22.5,10.093-22.5,22.5s10.093,22.5,22.5,22.5h210c12.407,0,22.5-10.093,22.5-22.5    S373.907,191,361.5,191z M361.5,221h-210c-4.136,0-7.5-3.364-7.5-7.5s3.364-7.5,7.5-7.5h210c4.136,0,7.5,3.364,7.5,7.5    S365.636,221,361.5,221z"/>
		<path d="M361.5,249h-210c-12.407,0-22.5,10.093-22.5,22.5s10.093,22.5,22.5,22.5h210c12.407,0,22.5-10.093,22.5-22.5    S373.907,249,361.5,249z M361.5,279h-210c-4.136,0-7.5-3.364-7.5-7.5s3.364-7.5,7.5-7.5h210c4.136,0,7.5,3.364,7.5,7.5    S365.636,279,361.5,279z"/>
		<path d="M437.5,300h-7v-12c0-4.142-3.358-7.5-7.5-7.5s-7.5,3.358-7.5,7.5v12h-22.384C346.183,300,308,338.183,308,385.116V458.5    c0,9.649,7.851,17.5,17.5,17.5h90v11.25c0,5.376-4.374,9.75-9.75,9.75h-299.5c-5.376,0-9.75-4.374-9.75-9.75V476h90    c9.649,0,17.5-7.851,17.5-17.5v-73.384C204,338.183,165.817,300,118.884,300H96.5V177.51c0-14.124,4.354-27.657,12.593-39.137    c9.751-13.588,15.407-30.262,15.407-47.883V64.167c0-4.142-3.358-7.5-7.5-7.5s-7.5,3.358-7.5,7.5V90.49    c0,13.812-4.282,27.557-12.593,39.137C86.828,143.671,81.5,160.229,81.5,177.51V300h-7c-9.649,0-17.5,7.851-17.5,17.5v98    c0,4.142,3.358,7.5,7.5,7.5s7.5-3.358,7.5-7.5v-98c0-1.378,1.122-2.5,2.5-2.5h44.384C157.546,315,189,346.454,189,385.116V458.5    c0,1.378-1.122,2.5-2.5,2.5h-112c-1.378,0-2.5-1.122-2.5-2.5v-11c0-4.142-3.358-7.5-7.5-7.5s-7.5,3.358-7.5,7.5v11    c0,9.649,7.851,17.5,17.5,17.5h7v11.25c0,13.647,11.103,24.75,24.75,24.75h299.5c13.647,0,24.75-11.103,24.75-24.75V476h7    c9.649,0,17.5-7.851,17.5-17.5v-141C455,307.851,447.149,300,437.5,300z M440,458.5c0,1.378-1.122,2.5-2.5,2.5h-112    c-1.378,0-2.5-1.122-2.5-2.5v-73.384C323,346.454,354.454,315,393.116,315H437.5c1.378,0,2.5,1.122,2.5,2.5V458.5z"/>
	</g>
</g>















</svg>
