<?xml version="1.0" encoding="iso-8859-1"?>
<!-- Generator: Adobe Illustrator 19.0.0, SVG Export Plug-In . SVG Version: 6.00 Build 0)  -->
<svg version="1.1" id="Capa_1" xmlns="http://www.w3.org/2000/svg" xmlns:xlink="http://www.w3.org/1999/xlink" x="0px" y="0px"
	 viewBox="0 0 512 512" style="enable-background:new 0 0 512 512;" xml:space="preserve">
<g>
	<path style="fill:#455A64;" d="M425.879,469.333c-18.309,1.275-36.301-5.268-49.515-18.005
		c-21.525-22.997-18.965-61.632-16.256-102.528c0.875-13.227,1.771-26.624,1.771-39.488c0-117.333-40.149-117.333-53.333-117.333
		c-5.891,0-10.667-4.776-10.667-10.667c0-5.891,4.776-10.667,10.667-10.667c74.667,0,74.667,104.363,74.667,138.667
		c0,13.333-0.896,27.179-1.813,40.896c-2.389,36.139-4.651,70.293,10.539,86.528c9.226,8.361,21.547,12.45,33.941,11.264
		c8.707,0.638,17.23-2.732,23.147-9.152c18.752-21.781,10.091-79.744,3.755-122.069c-2.953-16.571-4.813-33.318-5.568-50.133v-64
		c0-3.357,1.581-6.519,4.267-8.533c20.843-15.488,19.2-27.733,17.728-37.525c-0.379-2.401-0.6-4.824-0.661-7.253
		c-25.213-44.901-69.082-76.27-119.723-85.611c-5.744-1.325-9.325-7.056-8-12.8c1.326-5.744,7.056-9.325,12.8-8
		c93.995,21.632,136.256,91.008,136.256,106.411c0.066,1.431,0.222,2.856,0.469,4.267c4.328,20.825-4.268,42.212-21.803,54.251
		v58.816c0.809,15.739,2.59,31.414,5.333,46.933c7.317,49.067,16.448,109.973-8.704,139.136
		C455.268,463.937,440.816,470.041,425.879,469.333z"/>
	<path style="fill:#455A64;" d="M457.879,213.333c-2.831,0.005-5.548-1.115-7.552-3.115
		c-59.563-59.563-52.331-90.752-21.333-121.749c4.237-4.093,10.99-3.975,15.083,0.262c3.993,4.134,3.993,10.687,0,14.821
		c-18.069,18.069-35.115,35.115,21.333,91.584c4.171,4.16,4.179,10.914,0.019,15.085c-2.006,2.011-4.731,3.139-7.571,3.134
		L457.879,213.333z"/>
</g>
<path style="fill:#F44336;" d="M265.879,0H95.212C65.757,0,41.879,23.878,41.879,53.333v405.333c0,5.891,4.776,10.667,10.667,10.667
	h256c5.891,0,10.667-4.776,10.667-10.667V53.333C319.212,23.878,295.334,0,265.879,0z"/>
<path style="fill:#CFD8DC;" d="M95.212,42.667h170.667c5.891,0,10.667,4.776,10.667,10.667v128c0,5.891-4.776,10.667-10.667,10.667
	H95.212c-5.891,0-10.667-4.776-10.667-10.667v-128C84.545,47.442,89.321,42.667,95.212,42.667z"/>
<path style="fill:#455A64;" d="M308.545,448h-256c-17.673,0-32,14.327-32,32v21.333c0,5.891,4.776,10.667,10.667,10.667h298.667
	c5.891,0,10.667-4.776,10.667-10.667V480C340.545,462.327,326.219,448,308.545,448z"/>
<g>
</g>
<g>
</g>
<g>
</g>
<g>
</g>
<g>
</g>
<g>
</g>
<g>
</g>
<g>
</g>
<g>
</g>
<g>
</g>
<g>
</g>
<g>
</g>
<g>
</g>
<g>
</g>
<g>
</g>
</svg>
