<?xml version="1.0" encoding="iso-8859-1"?>
<!-- Generator: Adobe Illustrator 19.0.0, SVG Export Plug-In . SVG Version: 6.00 Build 0)  -->
<svg version="1.1" id="Layer_1" xmlns="http://www.w3.org/2000/svg" xmlns:xlink="http://www.w3.org/1999/xlink" x="0px" y="0px"
	 viewBox="0 0 512.003 512.003" style="enable-background:new 0 0 512.003 512.003;" xml:space="preserve">
<g>
	<path style="fill:#A4A4A4;" d="M371.356,205.617c-5.906-11.538-15.545-24.585-27.966-37.005
		c-12.42-12.42-25.468-22.06-37.005-27.966c-19.986-10.231-38.7-22.775-54.581-38.647l-2.048-2.048l12.491,24.973
		c7.451,14.91,4.529,32.918-7.256,44.703l-36.44,36.44c-6.894,6.894-6.894,18.07,0,24.964l62.42,62.42
		c6.894,6.894,18.07,6.894,24.964,0l36.44-36.431c11.794-11.794,29.802-14.716,44.712-7.256l0,0l24.964,12.482l-2.048-2.048
		C394.131,244.326,381.587,225.602,371.356,205.617"/>
	<g>
		<polygon style="fill:#8E8E8E;" points="418.296,181.098 330.902,93.705 423.725,0 512,88.276 		"/>
		<polygon style="fill:#8E8E8E;" points="88.278,512.003 0.002,423.727 93.707,330.905 181.1,418.298 		"/>
	</g>
	<g>
		<polygon style="fill:#3F3F3F;" points="293.454,256.003 255.999,218.547 280.972,193.583 318.419,231.038 		"/>
		<polygon style="fill:#3F3F3F;" points="199.823,437.022 74.984,312.182 162.368,224.789 287.217,349.629 		"/>
	</g>
	<polygon style="fill:#D25759;" points="193.581,380.843 131.162,318.423 168.617,280.968 231.037,343.388 	"/>
	<path style="fill:#3F3F3F;" d="M268.486,81.225l-18.723,18.723l2.039,2.048c15.881,15.881,34.595,28.425,54.59,38.656
		c11.538,5.906,24.576,15.545,36.996,27.966c12.42,12.412,22.06,25.459,27.966,36.996c10.231,19.994,22.775,38.709,38.656,54.581
		l2.039,2.048l18.732-18.723c13.789-13.789,13.789-36.149,0-49.938L318.424,81.225C304.635,67.437,282.275,67.437,268.486,81.225"/>
	<g>
		<path style="fill:#D25759;" d="M203.037,114.761h-44.138h-0.018c-2.207-0.009-4.211-0.821-5.756-2.154
			c-0.45-0.388-0.865-0.821-1.227-1.298c-1.033-1.333-1.677-2.975-1.81-4.758c-0.018-0.221-0.018-0.45-0.018-0.68V61.796
			c0-4.882,3.955-8.828,8.828-8.828c4.873,0,8.828,3.946,8.828,8.828v22.828l55.552-55.552c3.452-3.452,9.031-3.452,12.482,0
			s3.452,9.031,0,12.482l-55.552,55.552h22.828c4.873,0,8.828,3.946,8.828,8.828C211.864,110.815,207.91,114.761,203.037,114.761"/>
		<path style="fill:#D25759;" d="M282.485,485.52c-2.26,0-4.52-0.865-6.241-2.586c-3.452-3.452-3.452-9.031,0-12.482l55.552-55.552
			h-22.828c-4.873,0-8.828-3.946-8.828-8.828c0-4.882,3.955-8.828,8.828-8.828h44.138h0.018c2.207,0.009,4.211,0.821,5.756,2.154
			c0.45,0.388,0.865,0.821,1.227,1.298c1.033,1.333,1.677,2.975,1.81,4.758c0.018,0.221,0.018,0.45,0.018,0.68v44.076
			c0,4.882-3.955,8.828-8.828,8.828c-4.873,0-8.828-3.946-8.828-8.828v-22.828l-55.552,55.552
			C287.005,484.655,284.745,485.52,282.485,485.52"/>
	</g>
</g>
<g>
</g>
<g>
</g>
<g>
</g>
<g>
</g>
<g>
</g>
<g>
</g>
<g>
</g>
<g>
</g>
<g>
</g>
<g>
</g>
<g>
</g>
<g>
</g>
<g>
</g>
<g>
</g>
<g>
</g>
</svg>
